<?xml version="1.0" encoding="UTF-8"?>
<svg id="Calque_1" data-name="Calque 1" xmlns="http://www.w3.org/2000/svg" viewBox="0 0 1459.8 169.7">
  <defs>
    <style>
      .cls-1 { fill: #fbbf24; }
      .cls-2 { fill: #1c1917; }
    </style>
  </defs>
  <g>
    <polygon class="cls-2" points="35.6 36.64 0 36.64 0 167.94 88.65 167.94 88.65 139.21 35.6 139.21 35.6 36.64"/>
    <path class="cls-2" d="M185.36,42.59c-9.64-5.14-20.41-7.71-32.34-7.71s-22.72,2.57-32.38,7.71c-9.66,5.14-17.32,12.73-22.96,22.78-5.64,10.05-8.46,22.38-8.46,37.01s2.82,26.77,8.46,36.79c5.64,10.02,13.29,17.61,22.96,22.78,9.66,5.17,20.46,7.75,32.38,7.75s22.7-2.57,32.34-7.71c9.63-5.14,17.28-12.72,22.96-22.73,5.67-10.02,8.5-22.31,8.5-36.88s-2.83-26.96-8.5-37.01c-5.67-10.05-13.32-17.64-22.96-22.78ZM177.08,122.2c-2.06,5.4-5.1,9.5-9.12,12.29-4.02,2.79-9,4.19-14.94,4.19s-10.83-1.4-14.85-4.19c-4.02-2.79-7.08-6.89-9.16-12.29-2.09-5.4-3.13-12.01-3.13-19.83s1.04-14.53,3.13-19.96c2.08-5.43,5.14-9.55,9.16-12.34,4.02-2.79,8.97-4.19,14.85-4.19s10.91,1.4,14.94,4.19c4.02,2.79,7.06,6.9,9.12,12.34,2.06,5.43,3.08,12.09,3.08,19.96s-1.03,14.42-3.08,19.83Z"/>
    <path class="cls-2" d="M310.63,120c-.41,2.82-1.22,5.38-2.42,7.67-1.2,2.29-2.78,4.26-4.71,5.9s-4.2,2.91-6.79,3.79c-2.59.88-5.52,1.32-8.81,1.32-5.82,0-10.77-1.35-14.85-4.05-4.09-2.7-7.21-6.76-9.38-12.16-2.17-5.4-3.26-12.1-3.26-20.09s1.06-14.17,3.17-19.61,5.24-9.61,9.38-12.51,9.18-4.36,15.11-4.36c3.29,0,6.24.44,8.86,1.32,2.61.88,4.86,2.14,6.74,3.79,1.88,1.64,3.39,3.61,4.54,5.9s1.89,4.85,2.25,7.67h36.13c-.82-7.93-2.85-14.98-6.08-21.15-3.23-6.17-7.46-11.37-12.69-15.6-5.23-4.23-11.29-7.45-18.2-9.65-6.91-2.2-14.44-3.3-22.6-3.3-11.75,0-22.41,2.57-31.99,7.71-9.58,5.14-17.18,12.73-22.82,22.78s-8.46,22.38-8.46,37.01,2.78,26.77,8.33,36.79c5.55,10.02,13.1,17.61,22.65,22.78,9.55,5.17,20.31,7.75,32.3,7.75,9.63,0,18.08-1.51,25.33-4.54,7.26-3.03,13.36-7.01,18.33-11.94,4.96-4.93,8.78-10.31,11.46-16.13,2.67-5.82,4.22-11.51,4.63-17.1h-36.13Z"/>
    <path class="cls-2" d="M387.52,36.64l-42.56,131.3h39.83l7.19-25.2h40.42l7.54,25.2h40.36l-44.15-131.3h-48.64ZM424.45,116.12h-24.88c3.07-10.78,5.84-21.95,8.3-33.53,1.21-5.68,2.38-11.28,3.57-16.93,1.3,5.63,2.63,11.27,4,16.93,2.8,11.58,5.8,22.75,9,33.53Z"/>
    <polygon class="cls-2" points="581.26 36.64 467.23 36.64 467.23 65.37 506.44 65.37 506.44 167.94 542.04 167.94 542.04 65.37 581.26 65.37 581.26 36.64"/>
    <path class="cls-2" d="M610.74,36.64l-42.56,131.3h39.83l7.19-25.2h40.42l7.54,25.2h40.36l-44.15-131.3h-48.64ZM647.67,116.12h-24.88c3.07-10.78,5.84-21.95,8.3-33.53,1.21-5.68,2.38-11.28,3.57-16.93,1.3,5.63,2.63,11.27,4,16.93,2.8,11.58,5.8,22.75,9,33.53Z"/>
    <rect class="cls-2" x="710.63" y="36.64" width="35.6" height="131.3"/>
    <path class="cls-2" d="M856.87,105.02c4.17-6.46,6.26-14.39,6.26-23.79s-2.04-17.26-6.12-23.92-9.78-11.78-17.1-15.33-15.85-5.33-25.6-5.33h-56.57v131.3h35.6v-43.35h12.35l23.07,43.35h38.77l-26.78-48.97c6.83-3.27,12.21-7.91,16.11-13.95ZM793.33,65.19h12.51c4.23,0,7.84.56,10.84,1.67s5.29,2.85,6.87,5.2,2.38,5.4,2.38,9.16-.79,6.79-2.38,9.08-3.88,3.97-6.87,5.02-6.61,1.59-10.84,1.59h-12.51v-31.72Z"/>
    <polygon class="cls-2" points="872.86 167.94 967.15 167.94 967.15 139.21 908.46 139.21 908.46 115.59 962.57 115.59 962.57 87.57 908.46 87.57 908.46 65.37 967.5 65.37 967.5 36.64 872.86 36.64 872.86 167.94"/>
    <path class="cls-2" d="M1121.29,42.41c-7.31-3.85-15.85-5.77-25.6-5.77h-56.57v131.3h35.6v-38.95h19.74c9.99,0,18.74-1.87,26.26-5.6,7.52-3.73,13.36-9.02,17.54-15.86s6.26-14.97,6.26-24.37-2.04-17.51-6.12-24.5-9.78-12.41-17.1-16.26ZM1104.94,92.77c-1.59,2.7-3.88,4.8-6.87,6.3s-6.61,2.25-10.84,2.25h-12.51v-36.13h12.51c4.23,0,7.84.7,10.84,2.11s5.29,3.45,6.87,6.12,2.38,5.92,2.38,9.74-.79,6.9-2.38,9.61Z"/>
    <path class="cls-2" d="M1251.27,105.02c4.17-6.46,6.26-14.39,6.26-23.79s-2.04-17.26-6.12-23.92c-4.08-6.67-9.78-11.78-17.1-15.33s-15.85-5.33-25.6-5.33h-56.57v131.3h35.6v-43.35h12.35l23.07,43.35h38.77l-26.78-48.97c6.83-3.27,12.21-7.91,16.11-13.95ZM1187.74,65.19h12.51c4.23,0,7.84.56,10.84,1.67s5.29,2.85,6.87,5.2,2.38,5.4,2.38,9.16-.79,6.79-2.38,9.08-3.88,3.97-6.87,5.02-6.61,1.59-10.84,1.59h-12.51v-31.72Z"/>
    <path class="cls-2" d="M1384.07,65.37c-5.67-10.05-13.32-17.64-22.96-22.78s-20.41-7.71-32.34-7.71-22.72,2.57-32.38,7.71-17.32,12.73-22.96,22.78c-5.64,10.05-8.46,22.38-8.46,37.01s2.82,26.77,8.46,36.79,13.29,17.61,22.96,22.78c9.66,5.17,20.46,7.75,32.38,7.75s22.71-2.57,32.34-7.71,17.29-12.72,22.96-22.73c5.67-10.02,8.5-22.31,8.5-36.88s-2.83-26.96-8.5-37.01ZM1352.83,122.2c-2.06,5.4-5.1,9.5-9.12,12.29-4.02,2.79-9,4.19-14.94,4.19s-10.82-1.4-14.85-4.19c-4.02-2.79-7.08-6.89-9.16-12.29s-3.13-12.01-3.13-19.83,1.04-14.53,3.13-19.96,5.14-9.55,9.16-12.34c4.02-2.79,8.97-4.19,14.85-4.19s10.91,1.4,14.94,4.19c4.02,2.79,7.06,6.9,9.12,12.34s3.08,12.09,3.08,19.96-1.03,14.42-3.08,19.83Z"/>
  </g>
  <circle class="cls-1" cx="1432.22" cy="27.57" r="27.57"/>
</svg>